<?xml version="1.0" standalone="no"?>
<!DOCTYPE svg PUBLIC "-//W3C//DTD SVG 20010904//EN"
 "http://www.w3.org/TR/2001/REC-SVG-20010904/DTD/svg10.dtd">
<svg version="1.0" xmlns="http://www.w3.org/2000/svg"
 width="460.000000pt" height="460.000000pt" viewBox="0 0 460.000000 460.000000"
 preserveAspectRatio="xMidYMid meet">

<g transform="translate(0.000000,460.000000) scale(0.100000,-0.100000)"
fill="#000000" stroke="none">
<path d="M2078 4253 c7 -3 16 -2 19 1 4 3 -2 6 -13 5 -11 0 -14 -3 -6 -6z"/>
<path d="M81 4134 c0 -11 3 -14 6 -6 3 7 2 16 -1 19 -3 4 -6 -2 -5 -13z"/>
<path d="M1645 4030 c-3 -5 -2 -10 4 -10 5 0 13 5 16 10 3 6 2 10 -4 10 -5 0
-13 -4 -16 -10z"/>
<path d="M2428 4023 c7 -3 16 -2 19 1 4 3 -2 6 -13 5 -11 0 -14 -3 -6 -6z"/>
<path d="M1068 3953 c7 -3 16 -2 19 1 4 3 -2 6 -13 5 -11 0 -14 -3 -6 -6z"/>
<path d="M1357 3869 c7 -7 15 -10 18 -7 3 3 -2 9 -12 12 -14 6 -15 5 -6 -5z"/>
<path d="M1122 3810 c0 -14 2 -19 5 -12 2 6 2 18 0 25 -3 6 -5 1 -5 -13z"/>
<path d="M961 3778 c1 -24 3 -34 6 -23 3 11 9 24 14 30 14 14 11 35 -6 35 -11
0 -15 -11 -14 -42z"/>
<path d="M1280 3799 c0 -5 5 -7 10 -4 6 3 10 8 10 11 0 2 -4 4 -10 4 -5 0 -10
-5 -10 -11z"/>
<path d="M1168 3737 c-3 -19 -2 -25 4 -19 6 6 8 18 6 28 -3 14 -5 12 -10 -9z"/>
<path d="M991 3734 c0 -11 3 -14 6 -6 3 7 2 16 -1 19 -3 4 -6 -2 -5 -13z"/>
<path d="M726 3675 c8 -37 14 -45 14 -19 0 10 -5 26 -10 34 -8 11 -9 7 -4 -15z"/>
<path d="M0 3655 c0 -11 11 -15 40 -15 29 0 40 4 40 15 0 11 -11 15 -40 15
-29 0 -40 -4 -40 -15z"/>
<path d="M865 3636 c-23 -24 -29 -41 -8 -23 11 9 23 14 26 10 4 -3 7 -1 7 5 0
17 -14 21 -25 8z"/>
<path d="M970 3608 c0 -15 5 -30 10 -33 13 -8 13 25 0 45 -8 12 -10 9 -10 -12z"/>
<path d="M900 3600 c0 -5 5 -10 10 -10 6 0 10 5 10 10 0 6 -4 10 -10 10 -5 0
-10 -4 -10 -10z"/>
<path d="M866 3577 c3 -10 9 -15 12 -12 3 3 0 11 -7 18 -10 9 -11 8 -5 -6z"/>
<path d="M1022 3564 c2 -10 -3 -19 -9 -21 -7 -3 -13 0 -13 6 0 6 -8 11 -17 11
-17 -1 -17 -1 0 -14 9 -7 17 -21 17 -30 0 -9 5 -16 10 -16 6 0 10 7 10 15 0 8
5 15 10 15 6 0 10 11 10 25 0 14 -5 25 -10 25 -6 0 -10 -7 -8 -16z"/>
<path d="M930 3558 c0 -9 5 -20 10 -23 13 -8 13 5 0 25 -8 13 -10 13 -10 -2z"/>
<path d="M80 3520 c0 -11 5 -20 10 -20 6 0 10 9 10 20 0 11 -4 20 -10 20 -5 0
-10 -9 -10 -20z"/>
<path d="M737 3503 c-4 -3 -7 -13 -7 -20 0 -12 3 -12 15 1 8 8 15 17 15 20 0
8 -15 7 -23 -1z"/>
<path d="M1000 3472 c0 -5 10 -17 21 -28 22 -19 22 -19 10 3 -12 24 -31 39
-31 25z"/>
<path d="M731 3441 c-19 -12 -5 -62 25 -84 20 -15 24 -15 24 -3 0 8 -5 18 -10
21 -6 4 -8 15 -5 26 7 21 -10 27 -18 7 -2 -7 -8 -9 -13 -5 -4 4 -3 17 4 27 14
22 13 23 -7 11z"/>
<path d="M793 3405 c0 -15 6 -29 14 -32 22 -9 24 1 4 31 l-18 28 0 -27z"/>
<path d="M830 3422 c0 -12 19 -26 26 -19 2 2 -2 10 -11 17 -9 8 -15 8 -15 2z"/>
<path d="M50 3360 c0 -36 3 -40 25 -40 23 0 25 4 25 40 0 36 -2 40 -25 40 -22
0 -25 -4 -25 -40z"/>
<path d="M160 3360 c0 -29 4 -40 15 -40 11 0 15 11 15 40 0 29 -4 40 -15 40
-11 0 -15 -11 -15 -40z"/>
<path d="M299 3360 c-1 -22 -2 -45 -3 -52 -1 -6 5 -13 12 -15 7 -3 12 4 12 16
0 14 5 19 15 15 12 -5 15 3 15 35 0 37 -2 41 -25 41 -22 0 -25 -4 -26 -40z"/>
<path d="M840 3348 c15 -18 12 -28 -7 -28 -15 0 -16 -2 -3 -10 19 -12 33 -13
26 -1 -3 5 0 14 8 20 11 9 15 9 19 -1 2 -7 8 -10 12 -6 13 12 -16 40 -30 28
-7 -6 -16 -6 -23 0 -9 7 -9 7 -2 -2z"/>
<path d="M455 3330 c-4 -7 0 -19 9 -28 13 -14 16 -14 16 -2 0 25 -16 44 -25
30z"/>
<path d="M790 3330 c0 -5 5 -10 11 -10 5 0 7 5 4 10 -3 6 -8 10 -11 10 -2 0
-4 -4 -4 -10z"/>
<path d="M750 3280 c0 -22 5 -40 10 -40 6 0 10 18 10 40 0 22 -4 40 -10 40 -5
0 -10 -18 -10 -40z"/>
<path d="M900 3296 c0 -9 5 -16 10 -16 6 0 10 4 10 9 0 6 -4 13 -10 16 -5 3
-10 -1 -10 -9z"/>
<path d="M870 3270 c-8 -5 -11 -12 -7 -16 4 -4 13 -2 19 4 15 15 7 24 -12 12z"/>
<path d="M240 3256 c0 -9 7 -16 16 -16 9 0 14 5 12 12 -6 18 -28 21 -28 4z"/>
<path d="M943 3258 c2 -7 9 -12 14 -11 6 1 8 -9 5 -22 -3 -18 0 -25 11 -25 25
0 16 47 -11 60 -18 8 -23 8 -19 -2z"/>
<path d="M905 3250 c-3 -5 -1 -10 4 -10 6 0 11 5 11 10 0 6 -2 10 -4 10 -3 0
-8 -4 -11 -10z"/>
<path d="M23 3228 c2 -7 10 -13 17 -13 7 0 15 6 18 13 2 7 -5 12 -18 12 -13 0
-20 -5 -17 -12z"/>
<path d="M110 3200 c0 -29 -4 -40 -15 -40 -8 0 -15 8 -15 18 -1 15 -2 15 -15
-2 -10 -14 -15 -45 -15 -98 0 -45 -4 -78 -10 -78 -5 0 -10 -18 -10 -40 l0 -40
90 0 90 0 0 40 c0 38 -1 40 -31 40 l-31 0 7 75 c6 63 4 76 -9 81 -11 4 -16 19
-16 45 0 21 -4 39 -10 39 -5 0 -10 -18 -10 -40z m-23 -182 c-2 -13 -4 -3 -4
22 0 25 2 35 4 23 2 -13 2 -33 0 -45z"/>
<path d="M1025 3210 c3 -5 8 -10 11 -10 2 0 4 5 4 10 0 6 -5 10 -11 10 -5 0
-7 -4 -4 -10z"/>
<path d="M0 3098 c0 -81 3 -98 15 -98 21 0 21 148 0 176 -13 17 -14 9 -15 -78z"/>
<path d="M930 3170 c0 -5 5 -10 11 -10 5 0 7 5 4 10 -3 6 -8 10 -11 10 -2 0
-4 -4 -4 -10z"/>
<path d="M1036 3158 c3 -4 9 -8 15 -8 5 0 9 4 9 8 0 5 -7 9 -15 9 -8 0 -12 -4
-9 -9z"/>
<path d="M240 3120 c0 -29 4 -40 15 -40 11 0 15 -11 15 -40 0 -22 -4 -40 -10
-40 -5 0 -10 -18 -10 -40 0 -38 2 -40 30 -40 28 0 30 2 30 40 0 22 -4 40 -10
40 -5 0 -10 18 -10 40 0 22 -4 40 -10 40 -5 0 -10 18 -10 40 0 29 -4 40 -15
40 -11 0 -15 -11 -15 -40z"/>
<path d="M1090 3140 c0 -5 5 -10 11 -10 5 0 7 5 4 10 -3 6 -8 10 -11 10 -2 0
-4 -4 -4 -10z"/>
<path d="M395 3077 c-4 -19 -5 -45 -2 -58 3 -15 5 -8 6 18 1 30 6 42 18 45 15
3 15 4 0 16 -14 12 -17 9 -22 -21z"/>
<path d="M1070 3096 c0 -9 5 -16 10 -16 6 0 10 4 10 9 0 6 -4 13 -10 16 -5 3
-10 -1 -10 -9z"/>
<path d="M1117 3089 c4 -13 8 -18 11 -10 2 7 -1 18 -6 23 -8 8 -9 4 -5 -13z"/>
<path d="M1945 3090 c-3 -6 1 -7 9 -4 18 7 21 14 7 14 -6 0 -13 -4 -16 -10z"/>
<path d="M1150 3066 c0 -8 5 -18 10 -21 6 -3 10 1 10 9 0 8 -4 18 -10 21 -5 3
-10 -1 -10 -9z"/>
<path d="M2140 3071 c0 -6 5 -13 10 -16 6 -3 10 1 10 9 0 9 -4 16 -10 16 -5 0
-10 -4 -10 -9z"/>
<path d="M1050 3046 c0 -22 11 -46 21 -46 5 0 9 14 9 30 0 20 -5 30 -15 30 -8
0 -15 -6 -15 -14z"/>
<path d="M1940 3050 c0 -5 5 -10 11 -10 5 0 7 5 4 10 -3 6 -8 10 -11 10 -2 0
-4 -4 -4 -10z"/>
<path d="M2065 3010 c-3 -5 -1 -10 4 -10 6 0 11 5 11 10 0 6 -2 10 -4 10 -3 0
-8 -4 -11 -10z"/>
<path d="M640 2949 c0 -43 -4 -54 -25 -71 -33 -26 -32 -38 5 -38 28 0 30 2 30
40 0 22 5 40 10 40 6 0 10 18 10 40 0 29 -4 40 -15 40 -11 0 -15 -12 -15 -51z"/>
<path d="M1010 2990 c0 -5 7 -10 15 -10 8 0 15 -5 15 -12 0 -6 3 -8 6 -5 8 8
-14 37 -27 37 -5 0 -9 -4 -9 -10z"/>
<path d="M1090 2989 c0 -5 5 -7 10 -4 6 3 10 8 10 11 0 2 -4 4 -10 4 -5 0 -10
-5 -10 -11z"/>
<path d="M540 2935 c-10 -12 -10 -15 4 -15 9 0 16 7 16 15 0 8 -2 15 -4 15 -2
0 -9 -7 -16 -15z"/>
<path d="M1130 2929 c0 -11 5 -17 10 -14 6 3 10 13 10 21 0 8 -4 14 -10 14 -5
0 -10 -9 -10 -21z"/>
<path d="M1171 2934 c0 -11 3 -14 6 -6 3 7 2 16 -1 19 -3 4 -6 -2 -5 -13z"/>
<path d="M510 2890 c0 -27 -4 -50 -10 -50 -5 0 -10 -18 -10 -40 0 -29 4 -40
15 -40 12 0 15 17 15 90 0 50 -2 90 -5 90 -3 0 -5 -22 -5 -50z"/>
<path d="M1107 2926 c-4 -10 -5 -21 -2 -24 9 -9 17 6 13 25 -3 17 -4 17 -11
-1z"/>
<path d="M0 2800 c0 -100 3 -120 15 -120 11 0 15 11 15 40 0 22 5 40 10 40 6
0 10 -18 10 -40 0 -29 4 -40 15 -40 12 0 15 17 15 89 0 87 -1 90 -31 120 -17
17 -35 31 -40 31 -5 0 -9 -53 -9 -120z"/>
<path d="M430 2880 c0 -29 -4 -40 -15 -40 -8 0 -15 -7 -15 -15 0 -11 11 -15
40 -15 29 0 40 4 40 15 0 8 -7 15 -15 15 -11 0 -15 11 -15 40 0 22 -4 40 -10
40 -5 0 -10 -18 -10 -40z"/>
<path d="M710 2880 c0 -22 -4 -40 -10 -40 -5 0 -10 -18 -10 -40 0 -29 4 -40
15 -40 12 0 15 16 15 80 0 44 -2 80 -5 80 -3 0 -5 -18 -5 -40z"/>
<path d="M1040 2904 c0 -8 5 -12 10 -9 6 3 10 10 10 16 0 5 -4 9 -10 9 -5 0
-10 -7 -10 -16z"/>
<path d="M1802 2889 c-12 -19 -11 -19 8 -9 11 6 18 15 15 21 -8 12 -8 12 -23
-12z"/>
<path d="M1150 2878 c0 -19 2 -20 10 -8 13 19 13 30 0 30 -5 0 -10 -10 -10
-22z"/>
<path d="M1065 2881 c-7 -12 12 -24 25 -16 11 7 4 25 -10 25 -5 0 -11 -4 -15
-9z"/>
<path d="M2406 2874 c-9 -24 -7 -27 9 -10 17 17 19 26 6 26 -5 0 -12 -7 -15
-16z"/>
<path d="M1043 2801 l-3 -46 15 34 c18 41 19 48 3 54 -9 3 -14 -10 -15 -42z"/>
<path d="M1130 2820 c0 -18 4 -29 10 -25 6 3 10 15 10 25 0 10 -4 22 -10 25
-6 4 -10 -7 -10 -25z"/>
<path d="M90 2800 c0 -29 4 -40 15 -40 11 0 15 11 15 40 0 29 -4 40 -15 40
-11 0 -15 -11 -15 -40z"/>
<path d="M136 2779 c-10 -99 -10 -99 24 -99 l30 0 0 80 c0 77 -1 80 -24 80
-21 0 -24 -5 -30 -61z"/>
<path d="M233 2760 c0 -47 2 -66 4 -42 2 23 2 61 0 85 -2 23 -4 4 -4 -43z"/>
<path d="M552 2810 c0 -19 3 -57 8 -85 6 -40 7 -43 8 -15 0 19 -3 58 -8 85 -6
40 -7 43 -8 15z"/>
<path d="M1090 2831 c0 -6 5 -13 10 -16 6 -3 11 -18 11 -33 1 -18 3 -21 6 -9
3 10 1 26 -3 35 -4 9 -6 20 -6 25 1 4 -2 7 -8 7 -5 0 -10 -4 -10 -9z"/>
<path d="M1745 2780 c-3 -5 -1 -10 4 -10 6 0 11 5 11 10 0 6 -2 10 -4 10 -3 0
-8 -4 -11 -10z"/>
<path d="M1070 2770 c0 -5 5 -10 10 -10 6 0 10 5 10 10 0 6 -4 10 -10 10 -5 0
-10 -4 -10 -10z"/>
<path d="M633 2720 c0 -25 2 -35 4 -22 2 12 2 32 0 45 -2 12 -4 2 -4 -23z"/>
<path d="M2520 2750 c0 -5 5 -10 10 -10 6 0 10 5 10 10 0 6 -4 10 -10 10 -5 0
-10 -4 -10 -10z"/>
<path d="M1720 2724 c0 -8 5 -12 10 -9 6 3 10 10 10 16 0 5 -4 9 -10 9 -5 0
-10 -7 -10 -16z"/>
<path d="M1127 2669 c6 -23 9 -24 16 -5 3 8 0 17 -7 19 -10 4 -12 -1 -9 -14z"/>
<path d="M1172 2665 c0 -16 2 -22 5 -12 2 9 2 23 0 30 -3 6 -5 -1 -5 -18z"/>
<path d="M717 2619 c-4 -32 -4 -86 0 -119 l6 -60 38 0 c39 0 39 0 39 -41 l0
-41 40 5 40 4 0 -43 0 -44 55 0 55 0 0 -40 c0 -29 -4 -40 -15 -40 -11 0 -15
-11 -15 -40 l0 -40 81 0 82 0 -6 35 c-6 38 6 47 23 16 15 -28 12 -51 -5 -51
-11 0 -15 -11 -15 -40 l0 -40 40 0 c29 0 40 -4 40 -15 0 -12 -20 -15 -120 -15
l-120 0 0 -25 c0 -25 1 -25 80 -25 79 0 80 0 80 -25 0 -25 1 -25 80 -25 44 0
80 -4 80 -9 0 -6 19 -12 43 -14 l42 -4 -44 -1 -44 -2 7 -61 c3 -34 6 -70 6
-80 0 -14 7 -19 29 -19 28 0 30 3 34 43 2 30 4 23 5 -25 l2 -68 -40 0 c-22 0
-40 5 -40 10 0 6 -60 10 -160 10 l-160 0 0 74 c0 40 -3 101 -6 135 -7 59 -8
61 -35 61 -26 0 -28 -4 -32 -42 l-4 -43 -1 43 -2 42 -55 0 -55 0 0 40 c0 33
-3 40 -20 40 -17 0 -20 7 -20 40 l0 40 -45 0 -45 0 0 160 0 160 -45 0 -45 0 0
-40 c0 -38 -2 -40 -30 -40 -28 0 -30 2 -30 40 l0 40 -45 0 c-41 0 -45 2 -45
24 0 13 -7 26 -15 30 -11 4 -15 20 -15 57 l0 52 -37 -6 c-101 -16 -173 -19
-173 -8 0 6 -17 11 -40 11 -36 0 -40 -2 -40 -25 0 -22 -4 -25 -40 -25 -29 0
-40 -4 -40 -15 0 -8 7 -15 15 -15 11 0 15 -11 15 -40 0 -29 -4 -40 -15 -40
-13 0 -15 -142 -15 -1220 l0 -1220 1200 0 c1193 0 1200 0 1200 20 0 11 7 20
15 20 8 0 15 -9 15 -20 0 -18 7 -20 80 -20 73 0 80 2 80 20 0 11 5 20 10 20 6
0 10 -9 10 -20 0 -18 7 -20 80 -20 73 0 80 2 80 20 0 11 7 20 15 20 8 0 15 -9
15 -20 0 -18 7 -20 80 -20 l80 0 0 30 c0 29 13 40 25 20 3 -5 28 -10 56 -10
42 0 49 -3 49 -20 0 -16 7 -20 30 -20 23 0 30 4 30 20 0 15 7 20 25 20 18 0
25 -5 25 -20 0 -17 7 -20 40 -20 33 0 40 3 40 20 0 11 7 20 15 20 8 0 15 -9
15 -20 0 -15 7 -20 26 -20 24 0 26 3 20 31 -3 17 -6 45 -6 61 0 17 -4 27 -10
23 -6 -4 -10 12 -10 39 0 27 -5 46 -11 46 -7 0 -10 -16 -8 -43 4 -42 3 -43
-26 -43 -29 0 -30 1 -26 43 2 27 -1 43 -8 43 -6 0 -11 -18 -11 -43 0 -32 -4
-44 -15 -44 -18 0 -22 83 -4 89 7 2 5 9 -5 17 -14 12 -16 7 -16 -47 0 -52 -2
-60 -17 -57 -10 2 -28 4 -40 4 -21 1 -22 6 -25 79 -2 52 -7 77 -15 78 -7 1
-24 2 -38 3 -21 1 -25 6 -25 31 0 38 -19 39 -26 1 -7 -32 -37 -47 -54 -26 -7
8 -5 21 6 44 16 32 12 67 -6 56 -5 -3 -10 1 -10 9 0 25 -26 19 -48 -10 l-19
-27 -227 2 c-125 1 -234 5 -242 8 -10 4 -14 -3 -14 -26 0 -30 -2 -31 -40 -31
-22 0 -40 -5 -40 -11 0 -5 -5 -7 -11 -3 -8 4 -8 9 0 17 18 18 13 37 -11 47
-23 10 -23 10 2 9 43 -2 52 1 47 14 -2 6 -15 11 -29 9 -31 -4 -90 42 -81 64 5
13 8 13 24 -2 10 -9 16 -21 13 -25 -3 -5 2 -12 11 -15 28 -11 26 2 -4 34 -34
35 -68 34 -77 -3 -6 -22 -6 -23 -35 -7 -20 12 -27 22 -23 35 3 11 0 17 -10 17
-9 0 -16 -7 -16 -16 0 -9 -5 -14 -12 -12 -18 6 -22 28 -5 28 8 0 17 9 20 20 3
11 0 20 -6 20 -8 0 -8 3 0 11 14 14 36 2 29 -16 -3 -8 2 -19 10 -26 9 -7 12
-20 8 -32 -8 -27 18 -18 31 11 7 16 15 20 29 16 15 -5 13 0 -9 20 -16 15 -33
25 -39 23 -12 -4 -36 17 -36 31 0 6 -9 8 -20 5 -21 -6 -28 11 -9 22 17 11 -23
34 -48 28 -14 -3 -23 -1 -23 6 0 6 5 11 10 11 6 0 10 5 10 11 0 6 -8 8 -19 4
-15 -5 -18 -2 -14 14 4 14 0 19 -14 18 -11 -1 -18 4 -17 14 1 12 -4 15 -19 11
-16 -4 -19 -2 -14 11 5 13 1 16 -16 14 -16 -1 -22 3 -21 16 1 9 -4 17 -11 17
-15 0 -64 39 -50 40 6 0 16 -5 23 -12 7 -7 12 -9 12 -5 0 14 -39 46 -45 37
-11 -17 -25 -11 -25 11 0 16 -4 19 -20 14 -11 -4 -20 -2 -20 4 0 6 5 11 10 11
6 0 10 5 10 10 0 16 -28 12 -38 -5 -6 -12 -12 -8 -25 20 -17 37 -9 46 17 19 9
-8 16 -11 16 -6 0 13 -48 44 -59 38 -4 -3 -14 6 -21 19 -7 14 -17 25 -22 25
-5 0 -6 10 -2 22 6 19 5 21 -8 11 -16 -14 -38 0 -38 24 0 7 -4 13 -10 13 -5 0
-10 -5 -10 -12 0 -6 -2 -9 -5 -7 -6 7 6 49 15 49 4 0 12 -12 19 -26 6 -15 14
-24 18 -21 3 3 -4 21 -16 40 -14 24 -27 34 -39 31 -17 -5 -24 3 -50 62 -37 79
-37 79 -75 82 -24 2 -37 8 -37 18 0 8 5 14 11 14 5 0 8 -4 5 -9 -4 -5 9 -6 29
-1 27 6 35 5 35 -6 0 -8 5 -14 10 -14 17 0 11 17 -14 41 -13 13 -22 29 -19 36
8 21 -4 15 -32 -14 -29 -32 -35 -17 -6 16 20 23 27 116 8 104 -5 -3 -7 -23 -5
-44 2 -26 -1 -40 -10 -44 -10 -4 -12 7 -9 50 3 33 1 55 -5 55 -6 0 -7 8 -3 18
4 9 8 28 10 42 3 37 4 40 15 40 7 0 7 -6 0 -20 -8 -15 -8 -20 3 -20 8 0 19 11
25 25 6 14 16 25 22 25 5 0 10 14 10 30 0 24 -4 30 -22 30 -12 0 -30 -7 -40
-17 -17 -15 -18 -15 -18 5 0 21 5 22 75 22 l75 0 0 40 c0 39 -1 40 -35 40
l-35 0 0 51 c0 66 -24 62 -28 -4 l-3 -47 -40 0 -40 0 3 47 c3 41 6 48 28 53
14 3 25 12 25 20 0 8 -11 17 -25 20 -14 3 -25 11 -25 16 0 6 -8 19 -18 29 -12
11 -15 21 -9 27 12 12 35 1 27 -12 -7 -11 30 -32 50 -28 7 2 21 -6 29 -17 8
-11 18 -16 22 -12 5 4 2 12 -6 17 -10 7 -11 10 -2 10 6 0 12 7 12 16 0 14 -2
15 -17 3 -13 -11 -17 -11 -20 -1 -3 6 -13 12 -24 12 -16 0 -19 8 -20 43 -1 23
-4 32 -6 20 -2 -13 -11 -23 -20 -23 -10 0 -13 5 -8 18 4 9 8 31 10 47 1 17 0
20 -2 8 -2 -13 -8 -23 -12 -23 -5 0 -11 -13 -14 -28 -5 -26 -10 -29 -55 -31
-49 -2 -50 -2 -56 34 -8 40 -2 55 21 55 12 0 15 -8 10 -40 -5 -37 -3 -40 19
-40 21 0 24 4 24 40 0 33 -3 40 -20 40 -11 0 -20 6 -20 14 0 8 -7 22 -16 30
-9 10 -13 25 -10 38 3 13 3 17 0 11 -3 -7 -23 -13 -44 -13 -41 0 -70 26 -70
62 0 15 -9 18 -55 18 l-54 0 -3 78 -3 77 -82 -3 c-56 -2 -83 1 -83 8 0 6 4 9
9 6 5 -4 7 3 4 14 -4 14 -14 20 -34 20 -26 0 -29 4 -29 30 0 23 -5 30 -19 30
-22 0 -29 39 -23 128 l4 52 39 0 c32 0 39 3 39 20 0 17 -7 19 -79 19 l-78 0
-6 -60z m-397 -118 c0 -16 6 -31 15 -35 22 -8 18 -26 -5 -26 -17 0 -20 7 -20
40 0 38 -2 40 -29 40 -28 0 -30 -3 -34 -42 l-4 -43 -1 48 -2 47 40 0 c37 0 40
-2 40 -29z m-140 -145 c0 -3 -4 -8 -10 -11 -5 -3 -10 -1 -10 4 0 6 5 11 10 11
6 0 10 -2 10 -4z m60 -6 c0 -5 -2 -10 -4 -10 -3 0 -8 5 -11 10 -3 6 -1 10 4
10 6 0 11 -4 11 -10z m150 -22 c0 -18 3 -43 6 -55 6 -21 3 -23 -36 -23 -39 0
-42 2 -36 23 3 12 6 37 6 55 0 29 3 32 30 32 27 0 30 -3 30 -32z m37 26 c-3
-3 -12 -4 -19 -1 -8 3 -5 6 6 6 11 1 17 -2 13 -5z m173 -114 c0 -100 -2 -120
-15 -120 -12 0 -15 20 -15 120 0 100 3 120 15 120 13 0 15 -20 15 -120z m-136
71 c18 -7 16 -9 -14 -19 -45 -16 -50 -15 -50 8 0 21 27 26 64 11z m-253 -24
c-1 -4 -1 -25 -1 -47 0 -22 -4 -40 -9 -40 -9 0 -20 88 -12 96 7 6 23 0 22 -9z
m349 -182 c0 -11 -11 -15 -40 -15 -29 0 -40 4 -40 15 0 11 11 15 40 15 29 0
40 -4 40 -15z m-480 -215 c0 -5 -7 -10 -15 -10 -8 0 -15 5 -15 10 0 6 7 10 15
10 8 0 15 -4 15 -10z m50 -50 c0 -22 -4 -40 -10 -40 -5 0 -10 18 -10 40 0 22
5 40 10 40 6 0 10 -18 10 -40z m720 0 c0 -33 -3 -40 -20 -40 -17 0 -20 7 -20
40 0 33 3 40 20 40 17 0 20 -7 20 -40z m535 0 c0 -7 -6 -15 -12 -17 -8 -3 -13
4 -13 17 0 13 5 20 13 18 6 -3 12 -11 12 -18z m-1065 -135 c0 -11 -11 -15 -40
-15 -29 0 -40 4 -40 15 0 11 11 15 40 15 29 0 40 -4 40 -15z m50 -115 c0 -27
-4 -50 -10 -50 -5 0 -10 23 -10 50 0 28 5 50 10 50 6 0 10 -22 10 -50z m1020
-30 l0 -80 -55 0 c-42 0 -55 -3 -55 -15 0 -11 -11 -15 -40 -15 -29 0 -40 4
-40 15 0 11 11 15 40 15 l40 0 0 80 0 80 55 0 55 0 0 -80z m110 -350 c0 -5 -4
-10 -9 -10 -6 0 -13 5 -16 10 -3 6 1 10 9 10 9 0 16 -4 16 -10z m-53 -32 c-3
-8 -6 -5 -6 6 -1 11 2 17 5 13 3 -3 4 -12 1 -19z m73 -83 c0 -5 -10 6 -21 25
-12 19 -26 38 -32 41 -5 4 -1 9 9 11 14 2 22 -6 31 -32 7 -19 13 -39 13 -45z
m-700 25 c0 -22 -4 -40 -10 -40 -5 0 -10 18 -10 40 0 22 5 40 10 40 6 0 10
-18 10 -40z m490 0 c0 -29 -4 -40 -15 -40 -11 0 -15 11 -15 40 0 29 4 40 15
40 11 0 15 -11 15 -40z m170 -30 c0 -5 -4 -10 -10 -10 -5 0 -10 5 -10 10 0 6
5 10 10 10 6 0 10 -4 10 -10z m-673 -292 c-2 -24 -4 -5 -4 42 0 47 2 66 4 43
2 -24 2 -62 0 -85z m888 113 c3 -5 1 -12 -5 -16 -5 -3 -10 1 -10 9 0 18 6 21
15 7z m48 -56 c-6 -16 -43 -21 -43 -5 0 11 32 30 42 24 4 -3 5 -11 1 -19z
m-543 -25 c0 -5 -4 -10 -10 -10 -5 0 -10 5 -10 10 0 6 5 10 10 10 6 0 10 -4
10 -10z m607 -27 c2 -6 -3 -13 -12 -16 -10 -4 -15 -1 -15 11 0 10 -6 24 -12
32 -10 10 -7 10 11 -1 14 -9 26 -20 28 -26z m36 -28 c-3 -9 -8 -14 -10 -11 -3
3 -2 9 2 15 9 16 15 13 8 -4z m-643 -5 c0 -5 -4 -10 -10 -10 -5 0 -10 5 -10
10 0 6 5 10 10 10 6 0 10 -4 10 -10z m210 -90 c0 -47 -4 -80 -10 -80 -6 0 -10
33 -10 80 0 47 4 80 10 80 6 0 10 -33 10 -80z m545 10 c3 -5 -3 -10 -15 -10
-12 0 -18 5 -15 10 3 6 10 10 15 10 5 0 12 -4 15 -10z m-5 -40 c0 -5 -7 -10
-15 -10 -8 0 -15 5 -15 10 0 6 7 10 15 10 8 0 15 -4 15 -10z m47 -26 c-3 -3
-12 -4 -19 -1 -8 3 -5 6 6 6 11 1 17 -2 13 -5z m98 -23 c3 -5 1 -12 -4 -15 -5
-3 -11 1 -15 9 -6 16 9 21 19 6z m100 -81 c3 -5 -1 -10 -9 -10 -9 0 -16 5 -16
10 0 6 4 10 9 10 6 0 13 -4 16 -10z m-785 -40 c0 -22 -4 -40 -10 -40 -5 0 -10
18 -10 40 0 22 5 40 10 40 6 0 10 -18 10 -40z m50 36 c0 -3 -4 -8 -10 -11 -5
-3 -10 -1 -10 4 0 6 5 11 10 11 6 0 10 -2 10 -4z m4 -45 c3 -5 -1 -11 -9 -15
-9 -3 -15 0 -15 9 0 16 16 20 24 6z m56 -11 c0 -5 -4 -10 -10 -10 -5 0 -10 5
-10 10 0 6 5 10 10 10 6 0 10 -4 10 -10z m720 -60 c0 -5 -5 -10 -11 -10 -5 0
-7 5 -4 10 3 6 8 10 11 10 2 0 4 -4 4 -10z m700 -14 c0 -8 -4 -17 -9 -21 -12
-7 -24 12 -16 25 9 15 25 12 25 -4z m-1420 -41 c0 -11 -11 -15 -40 -15 -29 0
-40 4 -40 15 0 11 11 15 40 15 29 0 40 -4 40 -15z m760 -15 c0 -22 -7 -25 -29
-11 -16 10 -6 31 15 31 8 0 14 -9 14 -20z m663 10 c9 0 17 -5 17 -11 0 -5 -5
-7 -10 -4 -6 4 -25 3 -42 0 l-32 -7 25 -14 c25 -14 11 -18 -28 -8 -22 6 -22 7
-5 30 11 16 24 22 37 19 11 -3 28 -5 38 -5z m-283 -9 c0 -5 14 -7 30 -6 17 1
30 -2 30 -7 0 -5 10 -13 23 -18 15 -6 -11 -9 -85 -8 -79 1 -108 5 -112 15 -3
7 -16 13 -30 13 -14 0 -28 5 -31 10 -4 6 27 10 84 10 50 0 91 -4 91 -9z m170
0 c0 -16 -17 -21 -49 -15 -44 9 -38 24 9 24 22 0 40 -4 40 -9z m-555 -41 c-3
-5 -11 -10 -16 -10 -6 0 -7 5 -4 10 3 6 11 10 16 10 6 0 7 -4 4 -10z m478 -17
c-7 -2 -19 -2 -25 0 -7 3 -2 5 12 5 14 0 19 -2 13 -5z m-1025 -13 c17 0 32 -4
32 -10 0 -11 -72 -13 -108 -3 -18 4 -20 8 -10 15 7 4 22 6 33 3 11 -2 35 -5
53 -5z m15 -57 c-13 -2 -33 -2 -45 0 -13 2 -3 4 22 4 25 0 35 -2 23 -4z m1057
-43 c0 -29 -4 -40 -15 -40 -11 0 -15 11 -15 40 0 29 4 40 15 40 11 0 15 -11
15 -40z m210 4 c0 -23 -6 -42 -17 -50 -22 -16 -33 -17 -33 -4 0 6 7 10 15 10
11 0 15 11 15 40 0 22 5 40 10 40 6 0 10 -16 10 -36z m80 -4 c0 -22 -4 -40
-10 -40 -5 0 -10 18 -10 40 0 22 5 40 10 40 6 0 10 -18 10 -40z m-690 -25 c0
-11 -11 -15 -40 -15 -29 0 -40 4 -40 15 0 11 11 15 40 15 29 0 40 -4 40 -15z
m-515 -22 c-22 -3 -42 -9 -46 -14 -3 -6 -11 -3 -19 6 -11 13 -6 15 46 13 47
-1 51 -2 19 -5z m602 -55 c-2 -13 -4 -3 -4 22 0 25 2 35 4 23 2 -13 2 -33 0
-45z m70 0 c-2 -13 -4 -3 -4 22 0 25 2 35 4 23 2 -13 2 -33 0 -45z m323 32 c0
-5 -18 -10 -40 -10 -22 0 -40 5 -40 10 0 6 18 10 40 10 22 0 40 -4 40 -10z
m160 -10 c0 -21 -15 -27 -25 -10 -7 12 2 30 16 30 5 0 9 -9 9 -20z"/>
<path d="M1700 2661 c0 -10 7 -24 15 -31 16 -13 18 -8 9 28 -8 27 -24 29 -24
3z"/>
<path d="M2612 2640 c0 -14 2 -19 5 -12 2 6 2 18 0 25 -3 6 -5 1 -5 -13z"/>
<path d="M1187 2606 c-4 -10 -5 -21 -2 -24 9 -9 17 6 13 25 -3 17 -4 17 -11
-1z"/>
<path d="M560 2560 l0 -40 45 0 45 0 0 40 0 40 -45 0 -45 0 0 -40z"/>
<path d="M1681 2584 c0 -11 3 -14 6 -6 3 7 2 16 -1 19 -3 4 -6 -2 -5 -13z"/>
<path d="M2750 2560 c0 -5 5 -10 11 -10 5 0 7 5 4 10 -3 6 -8 10 -11 10 -2 0
-4 -4 -4 -10z"/>
<path d="M1209 2535 c-5 -21 11 -65 24 -65 10 0 9 14 -2 26 -5 5 -11 20 -13
34 -4 22 -5 22 -9 5z"/>
<path d="M2990 2530 c8 -5 20 -10 25 -10 6 0 3 5 -5 10 -8 5 -19 10 -25 10 -5
0 -3 -5 5 -10z"/>
<path d="M3275 2530 c-3 -6 1 -7 9 -4 18 7 21 14 7 14 -6 0 -13 -4 -16 -10z"/>
<path d="M1671 2494 c0 -11 3 -14 6 -6 3 7 2 16 -1 19 -3 4 -6 -2 -5 -13z"/>
<path d="M2728 2493 c7 -3 16 -2 19 1 4 3 -2 6 -13 5 -11 0 -14 -3 -6 -6z"/>
<path d="M1185 2471 c-8 -26 1 -39 16 -24 8 8 8 17 1 29 -9 16 -10 15 -17 -5z"/>
<path d="M3248 2483 c6 -2 18 -2 25 0 6 3 1 5 -13 5 -14 0 -19 -2 -12 -5z"/>
<path d="M1601 2464 c0 -11 3 -14 6 -6 3 7 2 16 -1 19 -3 4 -6 -2 -5 -13z"/>
<path d="M1560 2433 c0 -24 2 -43 4 -43 8 0 12 60 4 72 -4 8 -8 -4 -8 -29z"/>
<path d="M1120 2415 c0 -31 4 -45 12 -43 16 6 17 60 1 76 -11 11 -13 5 -13
-33z"/>
<path d="M1216 2444 c-9 -23 -2 -28 13 -10 7 8 8 17 3 20 -6 3 -13 -1 -16 -10z"/>
<path d="M1685 2450 c-3 -5 1 -10 9 -10 10 0 16 -9 16 -22 0 -12 3 -19 6 -15
9 9 -4 57 -16 57 -5 0 -12 -4 -15 -10z"/>
<path d="M3218 2443 c6 -2 18 -2 25 0 6 3 1 5 -13 5 -14 0 -19 -2 -12 -5z"/>
<path d="M1628 2433 c7 -3 16 -2 19 1 4 3 -2 6 -13 5 -11 0 -14 -3 -6 -6z"/>
<path d="M1770 2430 c0 -5 5 -10 10 -10 6 0 10 5 10 10 0 6 -4 10 -10 10 -5 0
-10 -4 -10 -10z"/>
<path d="M1237 2398 c-4 -30 -5 -31 -12 -10 -9 26 -26 29 -41 5 -13 -22 -4
-65 15 -71 11 -4 12 2 7 23 -6 24 -5 27 7 17 23 -19 44 -5 42 29 -3 42 -13 47
-18 7z"/>
<path d="M2705 2420 c-3 -5 -1 -10 4 -10 6 0 11 5 11 10 0 6 -2 10 -4 10 -3 0
-8 -4 -11 -10z"/>
<path d="M1590 2400 c0 -11 4 -20 9 -20 11 0 22 26 14 34 -12 12 -23 5 -23
-14z"/>
<path d="M2130 2370 c0 -5 7 -10 15 -10 8 0 15 5 15 10 0 6 -7 10 -15 10 -8 0
-15 -4 -15 -10z"/>
<path d="M1830 2355 c-10 -12 -16 -13 -26 -4 -11 9 -14 8 -14 -5 0 -10 9 -16
25 -16 14 0 25 5 25 10 0 6 9 10 19 10 11 0 23 5 26 10 10 16 -41 11 -55 -5z"/>
<path d="M1920 2340 c0 -5 5 -10 11 -10 5 0 7 5 4 10 -3 6 -8 10 -11 10 -2 0
-4 -4 -4 -10z"/>
<path d="M2056 2339 c3 -5 24 -9 46 -9 51 0 47 5 -10 13 -24 3 -40 1 -36 -4z"/>
<path d="M2175 2340 c4 -6 11 -8 16 -5 14 9 11 15 -7 15 -8 0 -12 -5 -9 -10z"/>
<path d="M1570 2331 c0 -5 7 -11 15 -15 9 -3 15 0 15 9 0 8 -7 15 -15 15 -8 0
-15 -4 -15 -9z"/>
<path d="M1963 2333 c9 -2 23 -2 30 0 6 3 -1 5 -18 5 -16 0 -22 -2 -12 -5z"/>
<path d="M1545 2260 c3 -41 10 -79 16 -85 8 -7 9 8 3 50 -11 95 -25 121 -19
35z"/>
<path d="M2225 2320 c3 -5 16 -10 28 -9 21 0 21 1 2 9 -28 12 -37 12 -30 0z"/>
<path d="M1212 2308 c-7 -7 -12 -19 -12 -27 1 -13 4 -12 16 4 8 11 18 19 22
17 3 -2 8 1 10 7 5 15 -21 14 -36 -1z"/>
<path d="M1276 2312 c-4 -7 -2 -20 5 -28 11 -13 9 -14 -17 -8 l-29 7 23 -23
c22 -21 27 -22 63 -10 21 7 39 16 39 20 0 15 -40 42 -54 37 -8 -3 -16 -1 -19
6 -2 8 -6 8 -11 -1z m61 -28 c-3 -3 -12 -4 -19 -1 -8 3 -5 6 6 6 11 1 17 -2
13 -5z"/>
<path d="M1136 2295 c-4 -10 1 -15 14 -15 11 0 20 7 20 15 0 8 -6 15 -14 15
-8 0 -16 -7 -20 -15z"/>
<path d="M1810 2299 c0 -5 5 -7 10 -4 6 3 10 8 10 11 0 2 -4 4 -10 4 -5 0 -10
-5 -10 -11z"/>
<path d="M2290 2306 c0 -2 7 -6 15 -10 8 -3 15 -1 15 4 0 6 -7 10 -15 10 -8 0
-15 -2 -15 -4z"/>
<path d="M1760 2280 c0 -17 2 -19 14 -8 14 13 12 28 -5 28 -5 0 -9 -9 -9 -20z"/>
<path d="M2417 2269 c7 -7 15 -10 18 -7 3 3 -2 9 -12 12 -14 6 -15 5 -6 -5z"/>
<path d="M1205 2239 c-4 -11 -4 -23 -1 -26 3 -4 6 -1 6 5 0 7 7 12 15 12 8 0
15 -7 15 -15 0 -9 10 -15 26 -15 23 0 24 2 10 15 -8 8 -19 15 -25 15 -6 0 -11
7 -11 15 0 23 -28 18 -35 -6z"/>
<path d="M1786 2251 c-4 -5 4 -11 16 -13 25 -4 37 -28 13 -28 -15 0 -15 -2 -1
-15 23 -23 31 -18 31 20 0 20 -5 35 -12 35 -6 0 -18 3 -26 6 -8 3 -18 1 -21
-5z"/>
<path d="M1356 2209 c-8 -42 0 -50 9 -9 4 17 5 34 2 36 -2 3 -7 -10 -11 -27z"/>
<path d="M1875 2210 c3 -5 11 -10 16 -10 6 0 7 5 4 10 -3 6 -11 10 -16 10 -6
0 -7 -4 -4 -10z"/>
<path d="M2595 2210 c-3 -5 1 -10 10 -10 9 0 13 5 10 10 -3 6 -8 10 -10 10 -2
0 -7 -4 -10 -10z"/>
<path d="M1298 2195 c-9 -9 17 -75 29 -75 7 0 13 -7 13 -15 0 -8 3 -15 6 -15
3 0 12 7 20 15 14 13 13 15 -5 15 -14 0 -21 6 -21 20 0 11 -4 20 -10 20 -5 0
-10 9 -10 20 0 19 -11 26 -22 15z"/>
<path d="M1523 2150 c0 -30 2 -43 4 -27 2 15 2 39 0 55 -2 15 -4 2 -4 -28z"/>
<path d="M2540 2189 c0 -5 5 -7 10 -4 6 3 10 8 10 11 0 2 -4 4 -10 4 -5 0 -10
-5 -10 -11z"/>
<path d="M3277 2189 c7 -7 15 -10 18 -7 3 3 -2 9 -12 12 -14 6 -15 5 -6 -5z"/>
<path d="M1370 2173 c0 -13 0 -26 -1 -30 0 -4 4 -9 10 -11 14 -5 14 28 1 48
-8 12 -10 11 -10 -7z"/>
<path d="M1780 2171 c0 -12 5 -21 10 -21 6 0 10 6 10 14 0 8 -4 18 -10 21 -5
3 -10 -3 -10 -14z"/>
<path d="M2338 2183 c7 -3 16 -2 19 1 4 3 -2 6 -13 5 -11 0 -14 -3 -6 -6z"/>
<path d="M1965 2170 c3 -5 10 -10 16 -10 5 0 9 5 9 10 0 6 -7 10 -16 10 -8 0
-12 -4 -9 -10z"/>
<path d="M2103 2173 c15 -2 39 -2 55 0 15 2 2 4 -28 4 -30 0 -43 -2 -27 -4z"/>
<path d="M2400 2170 c0 -5 9 -10 21 -10 11 0 17 5 14 10 -3 6 -13 10 -21 10
-8 0 -14 -4 -14 -10z"/>
<path d="M1842 2145 c0 -16 2 -22 5 -12 2 9 2 23 0 30 -3 6 -5 -1 -5 -18z"/>
<path d="M2595 2160 c3 -5 8 -10 11 -10 2 0 4 5 4 10 0 6 -5 10 -11 10 -5 0
-7 -4 -4 -10z"/>
<path d="M2450 2145 c0 -8 8 -11 20 -8 11 3 20 7 20 8 0 1 -9 5 -20 8 -12 3
-20 0 -20 -8z"/>
<path d="M1925 2140 c4 -6 11 -8 16 -5 14 9 11 15 -7 15 -8 0 -12 -5 -9 -10z"/>
<path d="M1890 2130 c0 -5 5 -10 11 -10 5 0 7 5 4 10 -3 6 -8 10 -11 10 -2 0
-4 -4 -4 -10z"/>
<path d="M2015 2130 c-3 -5 1 -10 10 -10 9 0 13 5 10 10 -3 6 -8 10 -10 10 -2
0 -7 -4 -10 -10z"/>
<path d="M1768 2123 c7 -3 16 -2 19 1 4 3 -2 6 -13 5 -11 0 -14 -3 -6 -6z"/>
<path d="M1935 2120 c-15 -7 -10 -9 23 -9 26 -1 41 3 37 9 -7 12 -32 12 -60 0z"/>
<path d="M2418 2123 c7 -3 16 -2 19 1 4 3 -2 6 -13 5 -11 0 -14 -3 -6 -6z"/>
<path d="M2478 2105 c3 -21 7 -23 18 -14 8 7 13 12 12 13 -2 1 -10 7 -19 14
-14 11 -16 9 -11 -13z"/>
<path d="M793 2080 c0 -25 2 -35 4 -22 2 12 2 32 0 45 -2 12 -4 2 -4 -23z"/>
<path d="M1555 2103 c2 -10 7 -29 11 -42 6 -21 4 -23 -17 -16 -17 4 -20 3 -10
-3 10 -7 12 -20 7 -46 -10 -53 -33 -47 -31 8 0 25 -3 43 -7 40 -13 -8 -2 -105
13 -115 25 -15 42 -10 36 11 -3 10 -1 20 4 22 4 2 10 19 12 38 2 20 7 41 11
48 4 7 2 26 -6 42 -14 33 -29 41 -23 13z"/>
<path d="M1600 2080 c0 -22 5 -40 10 -40 6 0 10 18 10 40 0 22 -4 40 -10 40
-5 0 -10 -18 -10 -40z"/>
<path d="M1390 2079 c-7 -11 -10 -23 -7 -25 2 -2 9 7 15 21 14 30 7 33 -8 4z"/>
<path d="M1511 2074 c0 -11 3 -14 6 -6 3 7 2 16 -1 19 -3 4 -6 -2 -5 -13z"/>
<path d="M3662 2055 c0 -16 2 -22 5 -12 2 9 2 23 0 30 -3 6 -5 -1 -5 -18z"/>
<path d="M1920 2054 c0 -8 5 -12 10 -9 6 4 8 11 5 16 -9 14 -15 11 -15 -7z"/>
<path d="M1364 2015 c-3 -13 -4 -30 -1 -37 3 -7 6 -3 6 9 1 12 6 25 11 28 13
8 13 25 0 25 -5 0 -12 -11 -16 -25z"/>
<path d="M3567 2027 c-11 -29 -9 -43 4 -30 6 6 9 19 7 29 -3 18 -4 18 -11 1z"/>
<path d="M1567 1890 c-9 -11 -17 -36 -17 -55 0 -28 4 -35 20 -35 17 0 20 7 20
40 0 33 3 40 20 40 11 0 20 5 20 10 0 6 -4 10 -9 10 -5 0 -15 2 -23 5 -7 3
-21 -4 -31 -15z"/>
<path d="M1680 1860 c0 -11 7 -20 15 -20 8 0 15 9 15 20 0 11 -7 20 -15 20 -8
0 -15 -9 -15 -20z"/>
<path d="M3622 1855 c0 -16 2 -22 5 -12 2 9 2 23 0 30 -3 6 -5 -1 -5 -18z"/>
<path d="M3526 1811 c-4 -7 -5 -15 -2 -18 9 -9 19 4 14 18 -4 11 -6 11 -12 0z"/>
<path d="M1200 1760 c0 -28 2 -30 40 -30 38 0 40 2 40 30 0 28 -2 30 -40 30
-38 0 -40 -2 -40 -30z"/>
<path d="M3602 1740 c0 -14 2 -19 5 -12 2 6 2 18 0 25 -3 6 -5 1 -5 -13z"/>
<path d="M1040 1735 c0 -11 11 -15 40 -15 29 0 40 4 40 15 0 11 -11 15 -40 15
-29 0 -40 -4 -40 -15z"/>
<path d="M1630 1680 c0 -22 5 -40 10 -40 6 0 10 18 10 40 0 22 -4 40 -10 40
-5 0 -10 -18 -10 -40z"/>
<path d="M3511 1694 c0 -11 3 -14 6 -6 3 7 2 16 -1 19 -3 4 -6 -2 -5 -13z"/>
<path d="M1812 1628 c6 -18 28 -21 28 -4 0 9 -7 16 -16 16 -9 0 -14 -5 -12
-12z"/>
<path d="M1920 1600 c0 -29 4 -40 15 -40 11 0 15 11 15 40 0 29 -4 40 -15 40
-11 0 -15 -11 -15 -40z"/>
<path d="M3492 1595 c0 -16 2 -22 5 -12 2 9 2 23 0 30 -3 6 -5 -1 -5 -18z"/>
<path d="M1760 1576 c0 -9 7 -16 16 -16 9 0 14 5 12 12 -6 18 -28 21 -28 4z"/>
<path d="M1518 1523 c5 -36 5 -36 18 -12 18 33 17 49 -4 49 -15 0 -17 -6 -14
-37z"/>
<path d="M1562 1523 c-7 -21 -14 -45 -16 -53 -2 -8 -1 -9 1 -2 6 17 23 15 23
-3 0 -7 8 -18 18 -24 14 -8 15 -12 5 -22 -18 -18 -16 -34 2 -19 12 10 15 10
15 -4 0 -9 7 -16 15 -16 8 0 15 5 15 12 0 6 3 9 6 6 7 -7 -18 -48 -28 -48 -5
0 -8 7 -8 15 0 8 -4 15 -10 15 -14 0 -12 -9 8 -35 17 -21 19 -21 30 -7 9 15
11 14 11 -5 1 -13 -4 -23 -10 -23 -5 0 -7 -5 -3 -11 4 -8 9 -8 17 0 17 17 30
13 23 -6 -4 -9 -3 -19 1 -22 15 -11 63 -87 63 -99 0 -22 -15 -12 -28 18 -13
29 -32 41 -32 20 0 -5 5 -10 10 -10 6 0 10 -7 10 -16 0 -20 27 -47 40 -39 5 3
10 14 10 23 0 15 2 15 10 2 5 -8 10 -30 10 -47 0 -18 5 -33 11 -33 6 0 8 -8 4
-19 -4 -13 1 -27 14 -40 10 -10 17 -22 13 -25 -3 -3 4 -6 16 -6 12 0 22 -6 22
-14 0 -9 7 -12 20 -9 26 7 84 -55 69 -73 -10 -12 13 -44 30 -44 13 0 32 26 24
33 -3 4 2 9 11 13 9 3 13 10 10 15 -9 15 13 10 26 -6 7 -8 19 -15 27 -15 8 0
11 -4 8 -10 -3 -5 -22 -10 -41 -10 -24 0 -34 -5 -34 -15 0 -8 0 -18 -1 -22 -1
-5 14 -7 32 -6 20 1 24 -1 12 -4 -13 -2 -23 -10 -23 -17 0 -20 25 -37 44 -30
11 4 16 0 16 -14 0 -17 6 -20 37 -19 22 1 37 -3 39 -11 1 -7 0 -8 -3 -2 -8 18
-21 11 -25 -15 -4 -17 -1 -25 8 -25 8 0 25 -10 40 -22 24 -22 64 -42 64 -33 0
2 -7 11 -16 19 -8 9 -11 16 -5 16 6 0 11 5 11 10 0 6 -10 10 -22 10 -20 0 -62
18 -48 21 3 0 13 2 24 4 32 6 43 25 24 39 -11 8 -18 26 -18 45 0 28 -3 31 -30
31 l-30 0 0 80 c0 79 0 80 -25 80 -19 0 -25 5 -25 23 0 21 -3 22 -75 19 -71
-3 -75 -2 -75 18 0 20 4 21 75 18 66 -3 75 -1 75 15 0 13 -9 17 -40 17 -22 0
-40 5 -40 10 0 6 -18 10 -40 10 -29 0 -40 4 -40 15 0 11 -11 15 -40 15 l-40 0
0 64 c0 36 -4 68 -10 71 -18 11 -10 25 15 25 23 0 25 -4 25 -40 0 -36 3 -40
25 -40 20 0 25 -5 25 -25 0 -22 4 -25 40 -25 29 0 40 -4 40 -15 0 -9 9 -15 25
-15 23 0 25 4 25 40 0 22 -3 39 -7 39 -5 -1 -23 -1 -40 0 -26 1 -33 5 -33 21
0 11 -4 20 -10 20 -5 0 -10 8 -10 19 0 10 -9 21 -20 24 -15 4 -20 14 -20 39 0
32 -2 34 -35 34 -22 0 -35 -5 -35 -13 0 -8 -14 -13 -40 -13 -30 0 -40 -4 -40
-16 0 -8 -4 -13 -9 -10 -12 8 11 56 27 56 7 0 12 15 12 40 0 29 -4 40 -15 40
-11 0 -15 -11 -15 -40 0 -22 -3 -40 -7 -40 -5 0 -19 -9 -33 -20 l-25 -20 25
-20 c14 -11 19 -20 13 -20 -7 0 -13 -7 -13 -16 0 -8 -4 -12 -10 -9 -5 3 -10
18 -10 33 -1 24 -2 25 -14 10 -10 -14 -12 -3 -9 69 6 114 -2 153 -28 153 -12
0 -29 -10 -40 -22 l-18 -23 -1 23 c0 34 -14 26 -28 -15z m38 -28 c0 -8 -4 -15
-10 -15 -5 0 -10 7 -10 15 0 8 5 15 10 15 6 0 10 -7 10 -15z m180 -184 c0 -6
-4 -13 -10 -16 -5 -3 -10 1 -10 9 0 9 5 16 10 16 6 0 10 -4 10 -9z m-33 -78
c-11 -10 -26 8 -20 23 5 15 7 14 15 -1 6 -9 7 -19 5 -22z m71 19 c2 -7 -6 -12
-17 -12 -21 0 -27 11 -14 24 9 9 26 2 31 -12z m72 -182 c0 -5 -6 -10 -14 -10
-8 0 -18 5 -21 10 -3 6 3 10 14 10 12 0 21 -4 21 -10z m-70 -9 c0 -6 -4 -13
-10 -16 -5 -3 -10 1 -10 9 0 9 5 16 10 16 6 0 10 -4 10 -9z m108 -36 c3 -11 0
-15 -7 -11 -6 4 -14 1 -17 -8 -3 -8 -12 -12 -20 -9 -11 4 -10 9 4 29 19 26 35
26 40 -1z m50 -144 c3 -8 -1 -12 -9 -9 -7 2 -15 10 -17 17 -3 8 1 12 9 9 7 -2
15 -10 17 -17z m82 -81 c0 -5 -4 -10 -10 -10 -5 0 -10 5 -10 10 0 6 5 10 10
10 6 0 10 -4 10 -10z"/>
<path d="M3672 1530 c0 -14 2 -19 5 -12 2 6 2 18 0 25 -3 6 -5 1 -5 -13z"/>
<path d="M3441 1504 c0 -11 3 -14 6 -6 3 7 2 16 -1 19 -3 4 -6 -2 -5 -13z"/>
<path d="M1464 1489 c-3 -6 -1 -16 5 -22 8 -8 11 -5 11 11 0 24 -5 28 -16 11z"/>
<path d="M2073 1440 c0 -25 2 -35 4 -22 2 12 2 32 0 45 -2 12 -4 2 -4 -23z"/>
<path d="M3410 1466 c0 -2 7 -9 15 -16 9 -7 15 -8 15 -2 0 5 -7 12 -15 16 -8
3 -15 4 -15 2z"/>
<path d="M3540 1429 c0 -5 5 -7 10 -4 6 3 10 8 10 11 0 2 -4 4 -10 4 -5 0 -10
-5 -10 -11z"/>
<path d="M3405 1400 c3 -5 8 -10 11 -10 2 0 4 5 4 10 0 6 -5 10 -11 10 -5 0
-7 -4 -4 -10z"/>
<path d="M1680 1389 c0 -5 5 -7 10 -4 6 3 10 8 10 11 0 2 -4 4 -10 4 -5 0 -10
-5 -10 -11z"/>
<path d="M3516 1384 c-4 -9 -4 -19 -1 -22 2 -3 7 3 11 12 4 9 4 19 1 22 -2 3
-7 -3 -11 -12z"/>
<path d="M3395 1360 c-3 -5 -1 -10 4 -10 6 0 11 5 11 10 0 6 -2 10 -4 10 -3 0
-8 -4 -11 -10z"/>
<path d="M2160 1320 c0 -31 16 -41 26 -15 4 8 17 15 30 15 15 0 24 6 24 15 0
11 -11 15 -40 15 -38 0 -40 -2 -40 -30z"/>
<path d="M3475 1320 c-3 -5 -1 -10 4 -10 6 0 11 5 11 10 0 6 -2 10 -4 10 -3 0
-8 -4 -11 -10z"/>
<path d="M3250 1311 c0 -6 5 -13 10 -16 6 -3 10 1 10 9 0 9 -4 16 -10 16 -5 0
-10 -4 -10 -9z"/>
<path d="M3310 1300 c-6 -11 -8 -20 -6 -20 3 0 10 9 16 20 6 11 8 20 6 20 -3
0 -10 -9 -16 -20z"/>
<path d="M3365 1309 c-4 -6 -5 -12 -2 -15 2 -3 7 2 10 11 7 17 1 20 -8 4z"/>
<path d="M3490 1276 c0 -8 -6 -16 -12 -19 -7 -2 -10 -8 -5 -12 4 -5 14 0 22
11 17 23 19 34 5 34 -5 0 -10 -6 -10 -14z"/>
<path d="M2215 1260 c-3 -5 -4 -14 -1 -18 3 -5 -7 -9 -22 -9 -98 -1 -112 -3
-112 -18 0 -11 11 -15 40 -15 22 0 40 -4 40 -10 0 -5 -18 -10 -40 -10 -22 0
-40 -4 -40 -10 0 -5 11 -10 25 -10 23 0 25 -4 25 -40 0 -29 4 -40 15 -40 11 0
15 -11 15 -40 l0 -40 40 0 40 0 0 40 c0 29 -4 40 -15 40 -11 0 -15 11 -15 39
0 22 4 41 8 43 12 4 23 108 12 108 -5 0 -12 -4 -15 -10z"/>
<path d="M3236 1261 c-4 -7 -5 -15 -2 -18 9 -9 19 4 14 18 -4 11 -6 11 -12 0z"/>
<path d="M1540 1247 c0 -16 41 -87 50 -87 6 0 10 -8 11 -17 0 -10 3 -13 5 -7
3 6 -11 35 -31 65 -19 29 -35 50 -35 46z"/>
<path d="M3460 1170 c0 -5 5 -10 10 -10 6 0 10 5 10 10 0 6 -4 10 -10 10 -5 0
-10 -4 -10 -10z"/>
<path d="M3450 1140 c-13 -8 -12 -10 3 -10 9 0 17 5 17 10 0 12 -1 12 -20 0z"/>
<path d="M3410 1134 c0 -3 7 -12 15 -20 16 -17 18 -14 9 10 -6 15 -24 23 -24
10z"/>
<path d="M1745 1121 c-3 -5 -1 -12 5 -16 5 -3 10 1 10 9 0 18 -6 21 -15 7z"/>
<path d="M2382 1098 c-18 -18 -16 -98 3 -98 11 0 15 11 15 40 l0 40 40 0 c29
0 40 4 40 15 0 19 -80 21 -98 3z"/>
<path d="M2562 1098 c3 -7 21 -14 41 -16 28 -2 37 1 37 12 0 12 -11 16 -41 16
-28 0 -39 -4 -37 -12z"/>
<path d="M3387 1089 c-3 -13 -1 -19 6 -16 15 5 22 37 9 37 -5 0 -12 -9 -15
-21z"/>
<path d="M3490 1100 c0 -5 4 -10 9 -10 6 0 13 5 16 10 3 6 -1 10 -9 10 -9 0
-16 -4 -16 -10z"/>
<path d="M3209 1072 c-15 -9 -32 -24 -38 -34 -13 -21 -5 -62 10 -52 5 3 7 9 4
14 -7 11 16 61 24 55 4 -2 12 5 19 16 7 10 11 19 10 18 -2 0 -15 -8 -29 -17z"/>
<path d="M3320 1069 c0 -5 5 -7 10 -4 6 3 10 8 10 11 0 2 -4 4 -10 4 -5 0 -10
-5 -10 -11z"/>
<path d="M3350 1053 c0 -4 5 -15 10 -23 8 -13 10 -13 10 2 0 9 -4 20 -10 23
-5 3 -10 3 -10 -2z"/>
<path d="M3300 1040 c0 -5 5 -10 10 -10 6 0 10 5 10 10 0 6 -4 10 -10 10 -5 0
-10 -4 -10 -10z"/>
<path d="M3123 985 c0 -43 1 -43 14 -19 9 19 10 31 3 45 -15 27 -17 24 -17
-26z"/>
<path d="M3297 977 c10 -18 19 -34 21 -36 1 -2 4 -2 7 1 12 12 -7 56 -26 61
-18 5 -19 4 -2 -26z"/>
<path d="M2482 923 c-2 -68 1 -83 13 -83 11 0 15 11 15 40 0 22 -4 40 -9 40
-6 0 -12 19 -14 43 -2 23 -4 5 -5 -40z"/>
<path d="M2722 963 c4 -52 28 -56 28 -4 0 30 -4 41 -16 41 -11 0 -14 -9 -12
-37z"/>
<path d="M2890 960 c0 -38 2 -40 30 -40 28 0 30 2 30 40 0 38 -2 40 -30 40
-28 0 -30 -2 -30 -40z"/>
<path d="M3276 966 c5 -21 4 -27 -5 -22 -6 4 -11 1 -11 -8 0 -8 5 -18 10 -21
6 -4 10 -3 9 2 -1 4 1 16 5 25 4 9 3 25 -3 35 -9 15 -10 13 -5 -11z"/>
<path d="M3041 958 c-1 -10 9 -28 21 -40 l21 -21 -21 -8 c-24 -9 -29 -38 -10
-57 10 -10 10 -17 0 -33 -19 -30 -8 -35 11 -5 14 21 14 26 2 36 -13 11 -12 16
5 37 24 30 26 63 5 63 -9 0 -20 10 -25 23 -7 17 -9 18 -9 5z"/>
<path d="M1870 955 c0 -7 39 -45 45 -45 3 0 -2 11 -11 25 -14 22 -34 34 -34
20z"/>
<path d="M3346 945 c-9 -26 -7 -32 5 -12 6 10 9 21 6 23 -2 3 -7 -2 -11 -11z"/>
<path d="M2236 849 c-5 -47 -4 -75 4 -84 7 -8 9 -28 4 -49 -3 -20 -2 -36 3
-36 5 0 7 -16 5 -35 -3 -27 -1 -35 12 -35 11 0 16 9 16 31 0 20 4 29 13 27 18
-6 20 -43 4 -60 -16 -16 -4 -53 14 -43 5 3 6 -1 3 -9 -3 -9 -1 -16 5 -16 18 0
26 31 10 40 -7 5 -10 13 -5 17 5 4 11 2 13 -4 3 -7 11 -13 19 -13 8 0 14 -6
15 -12 0 -7 2 -20 4 -29 2 -12 -3 -15 -16 -12 -24 7 -26 -28 -3 -48 13 -10 17
-10 25 2 8 10 9 9 4 -8 -7 -26 14 -42 27 -19 11 20 28 21 28 2 0 -8 6 -17 13
-20 6 -4 2 -4 -10 -2 -13 2 -26 0 -29 -5 -6 -11 -24 -10 216 -9 107 0 198 4
203 9 4 4 -6 6 -23 3 l-30 -4 17 33 c10 19 21 36 26 37 10 5 9 22 -3 22 -5 0
-12 -11 -16 -25 -5 -21 -12 -25 -45 -25 -47 0 -53 20 -6 21 32 0 32 0 7 12
-14 6 -26 12 -28 13 -2 1 3 20 10 43 10 32 18 41 35 41 17 0 23 -6 23 -21 0
-11 6 -27 14 -34 11 -12 17 -11 36 7 18 17 24 18 31 7 12 -20 16 -10 21 59 4
61 -4 82 -17 42 -3 -11 -11 -20 -16 -20 -5 0 -9 -9 -9 -20 0 -15 -7 -20 -25
-20 -20 0 -25 5 -25 24 0 13 7 26 15 30 22 8 18 26 -5 26 -15 0 -20 -7 -20
-25 0 -22 -4 -25 -39 -25 -22 0 -42 -5 -44 -12 -3 -7 -6 4 -6 25 -1 34 -3 37
-31 37 -28 0 -30 3 -30 35 0 30 -3 35 -24 35 -12 0 -51 3 -85 6 -61 7 -61 7
-61 -20 0 -24 3 -26 40 -26 29 0 40 -4 40 -15 0 -9 9 -15 25 -15 23 0 25 -4
25 -40 0 -36 -2 -40 -25 -40 -20 0 -25 -5 -25 -25 0 -22 -4 -25 -40 -25 -29 0
-40 -4 -40 -15 0 -11 -11 -15 -40 -15 -43 0 -45 3 -41 68 2 25 -3 38 -23 53
-33 26 -33 39 -1 39 23 0 25 4 25 40 l0 40 -40 0 -40 0 -2 83 c-1 45 -3 63 -5
40 -6 -58 -33 -60 -33 -3 0 32 -4 40 -19 40 -16 0 -19 -11 -25 -71z m447 -336
c-24 -2 -62 -2 -85 0 -24 2 -5 4 42 4 47 0 66 -2 43 -4z m34 -76 c-39 -6 -76
-6 -110 0 -48 10 -43 10 58 10 105 0 108 0 52 -10z"/>
<path d="M2960 910 c0 -5 5 -10 10 -10 6 0 10 5 10 10 0 6 -4 10 -10 10 -5 0
-10 -4 -10 -10z"/>
<path d="M3040 912 c0 -7 -7 -12 -16 -12 -8 0 -12 -4 -9 -10 3 -5 10 -10 15
-10 10 0 22 31 15 38 -3 3 -5 0 -5 -6z"/>
<path d="M3220 900 c0 -5 5 -10 10 -10 6 0 10 5 10 10 0 6 -4 10 -10 10 -5 0
-10 -4 -10 -10z"/>
<path d="M2966 873 c-7 -7 13 -33 25 -33 5 0 9 6 9 14 0 15 -24 28 -34 19z"/>
<path d="M3190 860 c0 -5 7 -10 15 -10 8 0 15 5 15 10 0 6 -7 10 -15 10 -8 0
-15 -4 -15 -10z"/>
<path d="M3080 850 c0 -5 5 -10 10 -10 6 0 10 5 10 10 0 6 -4 10 -10 10 -5 0
-10 -4 -10 -10z"/>
<path d="M2643 800 c0 -25 2 -35 4 -22 2 12 2 32 0 45 -2 12 -4 2 -4 -23z"/>
<path d="M2711 798 c2 -30 3 -35 6 -15 4 24 8 27 44 27 28 0 39 4 39 15 0 11
-12 15 -45 15 l-45 0 1 -42z"/>
<path d="M3010 825 c0 -8 2 -15 4 -15 2 0 6 7 10 15 3 8 1 15 -4 15 -6 0 -10
-7 -10 -15z"/>
<path d="M3197 800 c3 -11 9 -20 14 -20 5 0 9 9 9 20 0 11 -6 20 -14 20 -9 0
-12 -7 -9 -20z"/>
<path d="M3265 810 c-3 -5 -1 -10 4 -10 6 0 11 5 11 10 0 6 -2 10 -4 10 -3 0
-8 -4 -11 -10z"/>
<path d="M3171 793 c7 -12 15 -20 18 -17 3 2 -3 12 -13 22 -17 16 -18 16 -5
-5z"/>
<path d="M2997 771 c-3 -12 -1 -21 3 -21 15 0 23 21 12 32 -6 6 -11 2 -15 -11z"/>
<path d="M3140 780 c0 -5 5 -10 10 -10 6 0 10 5 10 10 0 6 -4 10 -10 10 -5 0
-10 -4 -10 -10z"/>
<path d="M2902 743 c2 -10 12 -18 23 -18 11 0 21 8 23 18 3 13 -3 17 -23 17
-20 0 -26 -4 -23 -17z"/>
<path d="M3021 743 c-7 -8 -11 -16 -8 -19 2 -2 10 2 17 11 17 20 9 27 -9 8z"/>
<path d="M3155 750 c-9 -14 4 -70 16 -70 12 0 12 67 0 75 -5 3 -13 1 -16 -5z"/>
<path d="M2970 730 c-13 -9 -13 -11 0 -20 15 -10 25 0 18 20 -2 6 -8 6 -18 0z"/>
<path d="M2986 681 c-4 -6 -13 -8 -21 -4 -10 3 -15 -2 -15 -16 0 -12 -7 -24
-15 -27 -10 -4 -15 -19 -15 -43 l0 -36 14 26 c7 14 16 38 20 53 4 15 10 24 15
22 10 -7 37 22 28 30 -3 3 -8 1 -11 -5z"/>
<path d="M3106 677 c-3 -6 -9 -27 -15 -44 -7 -23 -7 -33 0 -33 6 0 13 9 16 19
3 11 10 18 17 15 7 -3 12 6 14 20 2 25 -26 45 -32 23z"/>
<path d="M3204 650 c1 -16 7 -35 14 -42 9 -9 12 -3 12 30 0 29 -4 42 -14 42
-9 0 -13 -10 -12 -30z"/>
<path d="M3330 640 c0 -26 5 -40 13 -40 9 0 11 12 9 40 -2 22 -8 40 -13 40 -5
0 -9 -18 -9 -40z"/>
<path d="M3065 650 c-3 -5 -1 -10 4 -10 6 0 11 5 11 10 0 6 -2 10 -4 10 -3 0
-8 -4 -11 -10z"/>
<path d="M2210 626 c0 -2 7 -9 15 -16 13 -11 14 -10 9 4 -5 14 -24 23 -24 12z"/>
<path d="M3135 610 c4 -6 11 -8 16 -5 14 9 11 15 -7 15 -8 0 -12 -5 -9 -10z"/>
<path d="M3031 594 c0 -11 3 -14 6 -6 3 7 2 16 -1 19 -3 4 -6 -2 -5 -13z"/>
<path d="M2265 570 c10 -11 20 -20 22 -20 2 0 -2 9 -9 20 -7 11 -17 20 -22 20
-5 0 -1 -9 9 -20z"/>
<path d="M3006 518 c5 -31 5 -32 -10 -14 -13 16 -16 17 -16 4 0 -8 7 -21 15
-28 10 -9 15 -9 15 -1 0 18 18 13 22 -6 2 -10 4 3 4 29 -1 39 -4 48 -18 48
-14 0 -16 -6 -12 -32z"/>
<path d="M2886 523 c-6 -14 -5 -15 5 -6 7 7 10 15 7 18 -3 3 -9 -2 -12 -12z"/>
<path d="M2850 510 c0 -5 5 -10 10 -10 6 0 10 5 10 10 0 6 -4 10 -10 10 -5 0
-10 -4 -10 -10z"/>
<path d="M2840 469 c7 -11 14 -19 16 -16 7 7 -7 37 -17 37 -6 0 -5 -9 1 -21z"/>
<path d="M2960 477 c0 -9 -7 -20 -16 -25 -15 -8 -15 -10 0 -15 9 -4 15 -3 14
1 -1 4 2 15 7 25 4 10 5 21 1 24 -3 4 -6 -1 -6 -10z"/>
<path d="M2975 450 c-3 -5 -1 -10 4 -10 6 0 11 5 11 10 0 6 -2 10 -4 10 -3 0
-8 -4 -11 -10z"/>
<path d="M3600 302 c0 -12 -4 -22 -10 -22 -5 0 -10 -18 -10 -40 0 -38 -2 -40
-30 -40 -20 0 -30 -5 -30 -15 0 -11 11 -15 39 -15 l38 0 6 73 c3 39 3 74 1 76
-2 2 -4 -5 -4 -17z"/>
<path d="M3680 20 c0 -16 7 -20 30 -20 23 0 30 4 30 20 0 16 -7 20 -30 20 -23
0 -30 -4 -30 -20z"/>
<path d="M3992 20 c0 -14 2 -19 5 -12 2 6 2 18 0 25 -3 6 -5 1 -5 -13z"/>
<path d="M4100 20 c0 -11 5 -20 10 -20 6 0 10 9 10 20 0 11 -4 20 -10 20 -5 0
-10 -9 -10 -20z"/>
</g>
</svg>
